<?xml version="1.0" encoding="UTF-8"?>
<svg width="120px" height="120px" viewBox="0 0 120 120" version="1.1" xmlns="http://www.w3.org/2000/svg" xmlns:xlink="http://www.w3.org/1999/xlink">
    <!-- Generator: Sketch 41.2 (35397) - http://www.bohemiancoding.com/sketch -->
    <title>Artboard Copy 5</title>
    <desc>Created with Sketch.</desc>
    <defs></defs>
    <g id="Page-1" stroke="none" stroke-width="1" fill="none" fill-rule="evenodd">
        <g id="Artboard-Copy-5" fill="#000000">
            <g id="noun_572894_cc" transform="translate(4.000000, 12.000000)">
                <rect id="Rectangle-path" x="23.4666667" y="33.4222222" width="79.0518519" height="3.55555556"></rect>
                <path d="M80.5925926,80.9481481 L101.925926,80.9481481 L101.925926,68.1481481 L80.5925926,68.1481481 L80.5925926,80.9481481 Z M84.1481481,71.7037037 L98.3703704,71.7037037 L98.3703704,77.3925926 L84.1481481,77.3925926 L84.1481481,71.7037037 Z" id="Shape"></path>
                <rect id="Rectangle-path" x="27.9703704" y="52.1481481" width="14.1037037" height="3.55555556"></rect>
                <rect id="Rectangle-path" x="27.6148148" y="72.7703704" width="14.1037037" height="3.55555556"></rect>
                <rect id="Rectangle-path" x="56.0592593" y="52.1481481" width="14.1037037" height="3.55555556"></rect>
                <rect id="Rectangle-path" x="56.0592593" y="72.7703704" width="14.1037037" height="3.55555556"></rect>
                <rect id="Rectangle-path" x="84.2666667" y="52.1481481" width="14.1037037" height="3.55555556"></rect>
                <path d="M93.037037,7.34814815 L93.037037,0.592592593 L89.4814815,0.592592593 L89.4814815,7.34814815 L36.7407407,7.34814815 L36.7407407,0.474074074 L33.1851852,0.474074074 L33.1851852,7.34814815 L13.3925926,7.34814815 L0.592592593,88.8888889 L13.3925926,88.8888889 L13.3925926,95.1703704 L112.711111,95.1703704 L112.711111,7.34814815 L93.037037,7.34814815 Z M4.74074074,85.3333333 L13.3925926,30.9333333 L13.3925926,85.3333333 L4.74074074,85.3333333 Z M109.274074,91.6148148 L16.9481481,91.6148148 L16.9481481,10.9037037 L33.1851852,10.9037037 L33.1851852,17.4222222 L36.7407407,17.4222222 L36.7407407,10.9037037 L89.4814815,10.9037037 L89.4814815,17.6592593 L93.037037,17.6592593 L93.037037,10.9037037 L109.274074,10.9037037 L109.274074,91.6148148 Z" id="Shape"></path>
            </g>
        </g>
    </g>
</svg>