<?xml version="1.0" encoding="UTF-8"?>
<svg width="120px" height="120px" viewBox="0 0 120 120" version="1.1" xmlns="http://www.w3.org/2000/svg" xmlns:xlink="http://www.w3.org/1999/xlink">
    <!-- Generator: Sketch 41.2 (35397) - http://www.bohemiancoding.com/sketch -->
    <title>Artboard Copy 6</title>
    <desc>Created with Sketch.</desc>
    <defs></defs>
    <g id="Page-1" stroke="none" stroke-width="1" fill="none" fill-rule="evenodd">
        <g id="Artboard-Copy-6" fill="#000000">
            <g id="noun_693496_cc" transform="translate(2.000000, 8.000000)">
                <path d="M22.1,29.12 C14.56,29.12 8.32,22.88 8.32,15.34 C8.32,7.8 14.56,1.56 22.1,1.56 C29.64,1.56 35.88,7.8 35.88,15.34 C35.88,23.14 29.9,29.12 22.1,29.12 Z M22.1,5.46 C16.64,5.46 11.96,9.88 11.96,15.6 C11.96,21.06 16.38,25.74 22.1,25.74 C27.56,25.74 32.24,21.32 32.24,15.6 C32.24,9.88 27.82,5.46 22.1,5.46 Z" id="Shape"></path>
                <path d="M31.98,102.18 L23.66,102.18 C23.14,102.18 22.62,102.18 22.1,101.92 C21.58,102.18 21.06,102.18 20.54,102.18 L12.48,102.18 C10.66,102.18 9.1,100.62 9.1,98.8 L9.1,70.2 C9.1,69.94 8.32,69.42 7.8,69.42 C4.94,69.42 2.34,67.08 2.34,63.96 L2.34,45.5 C2.34,34.58 11.7,25.48 22.62,25.48 C30.68,25.48 40.82,28.34 45.5,36.4 C47.06,39 49.92,40.56 52.78,40.56 L56.16,40.56 C58.76,40.56 61.1,42.64 61.36,45.24 C61.62,48.36 60.06,51.74 55.9,52.26 L53.82,52.26 C48.1,52.26 40.56,49.92 36.4,45.5 C36.14,45.24 36.14,45.24 35.88,45.24 C35.36,45.24 35.1,45.5 35.1,46.02 L35.1,98.8 C35.36,100.62 33.8,102.18 31.98,102.18 Z M22.88,29.12 C13.78,29.12 5.98,36.66 5.98,45.5 L5.98,63.96 C5.98,65 6.76,65.78 7.8,65.78 C10.14,65.78 12.74,67.6 12.74,70.2 L12.74,98.8 L20.54,98.8 L20.54,72.54 C20.54,70.46 22.1,70.46 22.36,70.46 C22.88,70.46 24.18,70.46 24.18,72.54 L24.18,72.54 L24.18,98.8 L31.98,98.8 L31.98,46.02 C31.98,43.94 33.54,42.12 35.36,41.86 C36.92,41.6 38.48,42.12 39.52,43.16 C42.64,46.54 49.4,48.62 54.08,48.62 L55.9,48.62 C57.72,48.36 57.98,46.8 57.98,45.76 C57.98,44.98 57.2,44.46 56.42,44.46 L53.04,44.46 C48.62,44.46 44.72,42.12 42.38,38.48 C38.48,31.72 29.38,29.38 22.88,29.12 Z" id="Shape"></path>
                <path d="M83.72,15.34 C83.72,7.8 89.96,1.56 97.5,1.56 C105.04,1.56 111.28,7.8 111.28,15.34 C111.28,22.88 105.04,29.12 97.5,29.12 C89.7,29.12 83.72,23.14 83.72,15.34 Z M87.36,15.34 C87.36,20.8 91.78,25.48 97.5,25.48 C102.96,25.48 107.64,21.06 107.64,15.34 C107.64,9.88 103.22,5.2 97.5,5.2 C91.78,5.46 87.36,9.88 87.36,15.34 Z" id="Shape"></path>
                <path d="M84.24,98.8 L84.24,46.02 C84.24,45.76 83.98,45.5 83.46,45.24 C83.2,45.24 82.94,45.24 82.94,45.5 C79.04,49.92 71.24,52.26 65.52,52.26 L63.44,52.26 C59.28,51.74 57.72,48.36 57.98,45.24 C58.24,42.64 60.58,40.56 63.18,40.56 L66.56,40.56 C69.68,40.56 72.54,39 73.84,36.4 C78.26,28.34 88.4,25.48 96.72,25.48 C107.64,25.48 117,34.58 117,45.5 L117,63.96 C117,66.82 114.66,69.42 111.54,69.42 C111.02,69.42 110.5,69.94 110.24,70.2 L110.24,98.8 C110.24,100.62 108.68,102.18 106.86,102.18 L98.8,102.18 C98.28,102.18 97.76,102.18 97.24,101.92 C96.72,102.18 96.2,102.18 95.68,102.18 L87.36,102.18 C85.8,102.18 84.24,100.62 84.24,98.8 Z M77.22,38.22 C75.14,41.86 70.98,44.2 66.56,44.2 L63.18,44.2 C62.4,44.2 61.62,44.72 61.62,45.5 C61.62,46.8 61.88,48.1 63.7,48.36 L65.52,48.36 C70.2,48.36 76.96,46.28 80.08,42.9 C81.12,41.86 82.68,41.34 84.24,41.6 C86.32,42.12 87.62,43.68 87.62,45.76 L87.62,98.54 L95.42,98.54 L95.42,72.54 L95.42,72.54 C95.42,70.46 96.72,70.46 97.24,70.46 C97.5,70.46 99.06,70.46 99.06,72.54 L99.06,98.8 L106.86,98.8 L106.86,70.2 C106.86,67.6 109.46,65.78 111.8,65.78 C112.84,65.78 113.62,65 113.62,63.96 L113.62,45.5 C113.62,36.66 106.08,29.12 96.72,29.12 C90.22,29.38 81.12,31.72 77.22,38.22 Z" id="Shape"></path>
            </g>
        </g>
    </g>
</svg>