<?xml version="1.0" encoding="UTF-8"?>
<svg width="104px" height="104px" viewBox="0 0 104 104" version="1.1" xmlns="http://www.w3.org/2000/svg" xmlns:xlink="http://www.w3.org/1999/xlink">
    <!-- Generator: Sketch 41.2 (35397) - http://www.bohemiancoding.com/sketch -->
    <title>Artboard Copy 2</title>
    <desc>Created with Sketch.</desc>
    <defs></defs>
    <g id="Page-1" stroke="none" stroke-width="1" fill="none" fill-rule="evenodd">
        <g id="Artboard-Copy-2" fill="#000000">
            <g id="noun_362618_cc">
                <path d="M52,104 C80.72025,104 104,80.72025 104,52 C104,23.27975 80.72025,0 52,0 C23.27975,0 0,23.27975 0,52 C0,80.72025 23.27975,104 52,104 Z M52,3.25 C78.88075,3.25 100.75,25.11925 100.75,52 C100.75,78.88075 78.88075,100.75 52,100.75 C25.11925,100.75 3.25,78.88075 3.25,52 C3.25,25.11925 25.11925,3.25 52,3.25 Z" id="Shape"></path>
                <rect id="Rectangle-path" x="21.18025" y="29.9455" width="61.64275" height="3.25"></rect>
                <path d="M87.75,35.906 L16.25,35.906 L16.25,72.9365 L87.75,72.9365 L87.75,35.906 Z M84.5,69.68325 L19.5,69.68325 L19.5,39.15275 L84.5,39.15275 L84.5,69.68325 Z" id="Shape"></path>
                <polygon id="Shape" points="22.2105 41.925 22.2105 47.5735 28.015 41.925"></polygon>
                <polygon id="Shape" points="22.2105 61.2625 22.2105 66.91425 28.015 66.91425"></polygon>
                <polygon id="Shape" points="81.7895 41.925 75.985 41.925 81.7895 47.5735"></polygon>
                <polygon id="Shape" points="81.7895 61.2625 75.985 66.91425 81.7895 66.91425"></polygon>
                <path d="M52.45825,61.77925 C50.726,61.77925 49.1205,61.191 48.009,60.45 L47.268,62.52025 C48.35025,63.29375 50.20275,63.8495 51.9935,63.87875 L51.9935,66.99875 L53.94025,66.99875 L53.94025,63.78775 C57.122,63.26125 58.8185,60.9765 58.8185,58.53575 C58.8185,55.78625 57.213,54.18075 54.03125,52.884 C51.3435,51.7725 50.20275,50.96975 50.20275,49.36425 C50.20275,48.12925 51.0965,46.70575 53.4755,46.70575 C55.4515,46.70575 56.719,47.385 57.369,47.7555 L58.1425,45.71775 C57.2455,45.19125 55.978,44.69725 54.1255,44.6355 L54.1255,41.639 L52.21125,41.639 L52.21125,44.759 C49.3675,45.2205 47.5475,47.16725 47.5475,49.7315 C47.5475,52.41925 49.49425,53.8395 52.6435,55.0745 C54.92825,56.00075 56.134,57.0505 56.134,58.75025 C56.13075,60.51175 54.64875,61.77925 52.45825,61.77925 Z" id="Shape"></path>
            </g>
        </g>
    </g>
</svg>