<?xml version="1.0" encoding="UTF-8"?>
<svg width="120px" height="120px" viewBox="0 0 120 120" version="1.1" xmlns="http://www.w3.org/2000/svg" xmlns:xlink="http://www.w3.org/1999/xlink">
    <!-- Generator: Sketch 41.2 (35397) - http://www.bohemiancoding.com/sketch -->
    <title>Artboard Copy 3</title>
    <desc>Created with Sketch.</desc>
    <defs></defs>
    <g id="Page-1" stroke="none" stroke-width="1" fill="none" fill-rule="evenodd">
        <g id="Artboard-Copy-3" fill="#000000">
            <g id="noun_634068_cc" transform="translate(23.000000, 8.000000)">
                <path d="M61.4162162,24.7351351 L11.6648649,24.7351351 C7.30810811,24.7351351 3.65405405,21.2216216 3.65405405,16.7243243 L3.65405405,8.71351351 C3.65405405,4.35675676 7.16756757,0.702702703 11.6648649,0.702702703 L61.4162162,0.702702703 C65.772973,0.702702703 69.427027,4.21621622 69.427027,8.71351351 L69.427027,16.7243243 C69.427027,21.2216216 65.772973,24.7351351 61.4162162,24.7351351 Z M11.6648649,3.65405405 C8.85405405,3.65405405 6.46486486,5.9027027 6.46486486,8.85405405 L6.46486486,16.8648649 C6.46486486,19.6756757 8.71351351,22.0648649 11.6648649,22.0648649 L61.4162162,22.0648649 C64.227027,22.0648649 66.6162162,19.8162162 66.6162162,16.8648649 L66.6162162,8.85405405 C66.6162162,6.04324324 64.3675676,3.65405405 61.4162162,3.65405405 L11.6648649,3.65405405 Z" id="Shape"></path>
                <path d="M61.1351351,103.859459 L11.9459459,103.859459 C8.43243243,103.859459 5.62162162,102.875676 3.65405405,100.767568 C0.421621622,97.5351351 0.562162162,92.8972973 0.562162162,92.7567568 L0.562162162,35.1351351 C0.562162162,25.4378378 11.1027027,22.0648649 11.5243243,21.9243243 L11.9459459,21.9243243 L61.4162162,21.9243243 L61.5567568,21.9243243 C61.9783784,22.0648649 72.5189189,25.4378378 72.5189189,35.1351351 L72.5189189,92.7567568 C72.5189189,92.8972973 72.5189189,97.5351351 69.427027,100.767568 C67.4594595,102.875676 64.6486486,103.859459 61.1351351,103.859459 Z M12.227027,24.7351351 C10.8216216,25.1567568 3.37297297,28.1081081 3.37297297,35.2756757 L3.37297297,92.8972973 C3.37297297,92.8972973 3.37297297,96.5513514 5.76216216,98.9405405 C7.16756757,100.345946 9.27567568,101.189189 11.9459459,101.189189 L61.1351351,101.189189 C63.8054054,101.189189 65.9135135,100.486486 67.3189189,98.9405405 C69.7081081,96.5513514 69.7081081,93.0378378 69.7081081,92.8972973 L69.7081081,35.2756757 C69.7081081,28.2486486 62.2594595,25.2972973 60.8540541,24.7351351 L12.227027,24.7351351 L12.227027,24.7351351 Z" id="Shape"></path>
                <path d="M15.7405405,96.972973 L14.4756757,96.972973 C12.5081081,96.972973 10.8216216,96.4108108 9.55675676,95.1459459 C7.72972973,93.3189189 7.72972973,90.6486486 7.72972973,90.3675676 L7.72972973,83.3405405 C7.72972973,82.4972973 8.29189189,81.9351351 9.13513514,81.9351351 C9.97837838,81.9351351 10.5405405,82.4972973 10.5405405,83.3405405 L10.5405405,90.3675676 C10.5405405,90.3675676 10.5405405,92.0540541 11.6648649,93.1783784 C12.3675676,93.8810811 13.2108108,94.1621622 14.4756757,94.1621622 L15.7405405,94.1621622 C16.5837838,94.1621622 17.1459459,94.7243243 17.1459459,95.5675676 C17.1459459,96.4108108 16.5837838,96.972973 15.7405405,96.972973 Z" id="Shape"></path>
                <path d="M11.8054054,19.5351351 C10.9621622,19.5351351 10.4,18.972973 10.4,18.1297297 L10.4,7.72972973 C10.4,6.88648649 10.9621622,6.32432432 11.8054054,6.32432432 C12.6486486,6.32432432 13.2108108,6.88648649 13.2108108,7.72972973 L13.2108108,18.1297297 C13.2108108,18.972973 12.6486486,19.5351351 11.8054054,19.5351351 Z" id="Shape"></path>
                <path d="M17.2864865,19.5351351 C16.4432432,19.5351351 15.8810811,18.972973 15.8810811,18.1297297 L15.8810811,7.72972973 C15.8810811,6.88648649 16.4432432,6.32432432 17.2864865,6.32432432 C18.1297297,6.32432432 18.6918919,6.88648649 18.6918919,7.72972973 L18.6918919,18.1297297 C18.6918919,18.972973 18.1297297,19.5351351 17.2864865,19.5351351 Z" id="Shape"></path>
                <path d="M22.7675676,19.5351351 C21.9243243,19.5351351 21.3621622,18.972973 21.3621622,18.1297297 L21.3621622,7.72972973 C21.3621622,6.88648649 21.9243243,6.32432432 22.7675676,6.32432432 C23.6108108,6.32432432 24.172973,6.88648649 24.172973,7.72972973 L24.172973,18.1297297 C24.172973,18.972973 23.6108108,19.5351351 22.7675676,19.5351351 Z" id="Shape"></path>
                <path d="M28.2486486,19.5351351 C27.4054054,19.5351351 26.8432432,18.972973 26.8432432,18.1297297 L26.8432432,7.72972973 C26.8432432,6.88648649 27.4054054,6.32432432 28.2486486,6.32432432 C29.0918919,6.32432432 29.6540541,6.88648649 29.6540541,7.72972973 L29.6540541,18.1297297 C29.6540541,18.972973 29.0918919,19.5351351 28.2486486,19.5351351 Z" id="Shape"></path>
                <path d="M33.7297297,19.5351351 C32.8864865,19.5351351 32.3243243,18.972973 32.3243243,18.1297297 L32.3243243,7.72972973 C32.3243243,6.88648649 32.8864865,6.32432432 33.7297297,6.32432432 C34.572973,6.32432432 35.1351351,6.88648649 35.1351351,7.72972973 L35.1351351,18.1297297 C35.1351351,18.972973 34.572973,19.5351351 33.7297297,19.5351351 Z" id="Shape"></path>
                <path d="M39.2108108,19.5351351 C38.3675676,19.5351351 37.8054054,18.972973 37.8054054,18.1297297 L37.8054054,7.72972973 C37.8054054,6.88648649 38.3675676,6.32432432 39.2108108,6.32432432 C40.0540541,6.32432432 40.6162162,6.88648649 40.6162162,7.72972973 L40.6162162,18.1297297 C40.6162162,18.972973 40.0540541,19.5351351 39.2108108,19.5351351 Z" id="Shape"></path>
                <path d="M44.6918919,19.5351351 C43.8486486,19.5351351 43.2864865,18.972973 43.2864865,18.1297297 L43.2864865,7.72972973 C43.2864865,6.88648649 43.8486486,6.32432432 44.6918919,6.32432432 C45.5351351,6.32432432 46.0972973,6.88648649 46.0972973,7.72972973 L46.0972973,18.1297297 C46.0972973,18.972973 45.5351351,19.5351351 44.6918919,19.5351351 Z" id="Shape"></path>
                <path d="M50.172973,19.5351351 C49.3297297,19.5351351 48.7675676,18.972973 48.7675676,18.1297297 L48.7675676,7.72972973 C48.7675676,6.88648649 49.3297297,6.32432432 50.172973,6.32432432 C51.0162162,6.32432432 51.5783784,6.88648649 51.5783784,7.72972973 L51.5783784,18.1297297 C51.5783784,18.972973 51.0162162,19.5351351 50.172973,19.5351351 Z" id="Shape"></path>
                <path d="M55.6540541,19.5351351 C54.8108108,19.5351351 54.2486486,18.972973 54.2486486,18.1297297 L54.2486486,7.72972973 C54.2486486,6.88648649 54.8108108,6.32432432 55.6540541,6.32432432 C56.4972973,6.32432432 57.0594595,6.88648649 57.0594595,7.72972973 L57.0594595,18.1297297 C57.0594595,18.972973 56.4972973,19.5351351 55.6540541,19.5351351 Z" id="Shape"></path>
                <path d="M61.1351351,19.5351351 C60.2918919,19.5351351 59.7297297,18.972973 59.7297297,18.1297297 L59.7297297,7.72972973 C59.7297297,6.88648649 60.2918919,6.32432432 61.1351351,6.32432432 C61.9783784,6.32432432 62.5405405,6.88648649 62.5405405,7.72972973 L62.5405405,18.1297297 C62.5405405,18.972973 61.8378378,19.5351351 61.1351351,19.5351351 Z" id="Shape"></path>
                <path d="M36.5405405,61.5567568 C32.7459459,60.2918919 28.5297297,58.8864865 28.5297297,53.6864865 C28.5297297,50.3135135 31.4810811,46.3783784 36.5405405,45.9567568 L36.5405405,43.9891892 C36.5405405,43.427027 36.8216216,43.1459459 37.3837838,43.1459459 C37.9459459,43.1459459 38.227027,43.5675676 38.227027,43.9891892 L38.227027,45.9567568 C41.6,46.2378378 44.6918919,47.6432432 44.6918919,49.4702703 C44.6918919,50.3135135 43.9891892,51.1567568 43.1459459,51.1567568 C41.7405405,51.1567568 41.0378378,49.6108108 38.3675676,49.1891892 L38.3675676,58.4648649 C42.3027027,59.8702703 46.8,61.4162162 46.8,67.0378378 C46.8,71.5351351 43.8486486,75.6108108 38.3675676,76.3135135 L38.3675676,78.4216216 C38.3675676,78.9837838 38.0864865,79.2648649 37.5243243,79.2648649 C36.9621622,79.2648649 36.6810811,78.8432432 36.6810811,78.4216216 L36.6810811,76.4540541 C32.3243243,76.4540541 28.3891892,74.4864865 28.3891892,72.6594595 C28.3891892,71.8162162 28.9513514,70.8324324 29.7945946,70.8324324 C31.3405405,70.8324324 32.8864865,73.0810811 36.6810811,73.0810811 L36.6810811,61.5567568 L36.5405405,61.5567568 Z M36.5405405,49.0486486 C34.1513514,49.3297297 32.4648649,51.0162162 32.4648649,53.2648649 C32.4648649,55.5135135 34.1513514,56.6378378 36.5405405,57.6216216 L36.5405405,49.0486486 Z M38.3675676,72.9405405 C41.1783784,72.3783784 42.8648649,69.9891892 42.8648649,67.0378378 C42.8648649,64.227027 40.8972973,62.9621622 38.3675676,62.1189189 L38.3675676,72.9405405 Z" id="Shape"></path>
                <path d="M9.13513514,79.6864865 C8.29189189,79.6864865 7.72972973,79.1243243 7.72972973,78.2810811 L7.72972973,50.3135135 C7.72972973,49.4702703 8.29189189,48.9081081 9.13513514,48.9081081 C9.97837838,48.9081081 10.5405405,49.4702703 10.5405405,50.3135135 L10.5405405,78.2810811 C10.5405405,79.1243243 9.97837838,79.6864865 9.13513514,79.6864865 Z" id="Shape"></path>
            </g>
        </g>
    </g>
</svg>