<?xml version="1.0" encoding="UTF-8"?>
<svg width="104px" height="104px" viewBox="0 0 104 104" version="1.1" xmlns="http://www.w3.org/2000/svg" xmlns:xlink="http://www.w3.org/1999/xlink">
    <!-- Generator: Sketch 41.2 (35397) - http://www.bohemiancoding.com/sketch -->
    <title>Artboard Copy</title>
    <desc>Created with Sketch.</desc>
    <defs></defs>
    <g id="Page-1" stroke="none" stroke-width="1" fill="none" fill-rule="evenodd">
        <g id="Artboard-Copy" fill="#000000">
            <g id="noun_544636_cc">
                <path d="M92.8610526,46.6230175 C92.5508772,46.0044912 91.9195789,45.6140351 91.2280702,45.6140351 L87.5789474,45.6140351 L69.3333333,45.6140351 L69.3333333,31.0175439 C69.3333333,25.9872281 65.2408421,21.8947368 60.2105263,21.8947368 L41.9649123,21.8947368 C36.9345965,21.8947368 32.8421053,25.9872281 32.8421053,31.0175439 L32.8421053,45.6140351 L14.5964912,45.6140351 L10.9473684,45.6140351 C10.2558596,45.6140351 9.6245614,46.0044912 9.31438596,46.6230175 L0.191578947,64.8686316 C-0.0912280702,65.4342456 -0.0602105263,66.1056842 0.271859649,66.6439298 C0.603929825,67.1821754 1.1914386,67.5087719 1.8245614,67.5087719 L9.12280702,67.5087719 L9.12280702,94.877193 C9.12280702,99.9075088 13.2152982,104 18.245614,104 L32.8421053,104 L47.4385965,104 L69.3333333,104 L83.9298246,104 C88.9601404,104 93.0526316,99.9075088 93.0526316,94.877193 L93.0526316,67.5087719 L100.350877,67.5087719 C100.984,67.5087719 101.569684,67.1803509 101.903579,66.6421053 C102.237474,66.1038596 102.266667,65.4324211 101.98386,64.866807 L92.8610526,46.6230175 Z M36.4912281,31.0175439 C36.4912281,27.9997193 38.9470877,25.5438596 41.9649123,25.5438596 L60.2105263,25.5438596 C63.2283509,25.5438596 65.6842105,27.9997193 65.6842105,31.0175439 L65.6842105,45.6140351 L58.3385263,45.6140351 C59.4971228,44.0850526 60.2105263,42.2021053 60.2105263,40.1403509 C60.2105263,39.1313684 59.3931228,38.3157895 58.3859649,38.3157895 L43.7894737,38.3157895 C42.7823158,38.3157895 41.9649123,39.1313684 41.9649123,40.1403509 C41.9649123,42.2021053 42.6783158,44.0850526 43.8369123,45.6140351 L36.4912281,45.6140351 L36.4912281,31.0175439 Z M45.9260351,41.9649123 L56.2475789,41.9649123 C55.4940351,44.0887018 53.4651228,45.6140351 51.0858947,45.6140351 C48.7066667,45.6140351 46.6795789,44.0887018 45.9260351,41.9649123 Z M12.0749474,49.2631579 L14.5964912,49.2631579 L34.6666667,49.2631579 L66.381193,49.2631579 L59.0829474,63.8596491 L4.77670175,63.8596491 L12.0749474,49.2631579 Z M12.7719298,94.877193 L12.7719298,67.5087719 L60.2105263,67.5087719 C60.9020351,67.5087719 61.5333333,67.1183158 61.8435088,66.4997895 L67.5087719,55.1674386 L67.5087719,100.350877 L49.2631579,100.350877 L49.2631579,80.2807018 C49.2631579,79.6475789 48.9347368,79.0618947 48.3983158,78.728 C47.8600702,78.3941053 47.186807,78.3667368 46.6230175,78.6477193 L43.7894737,80.0654035 L40.9559298,78.6495439 C40.4414035,78.3922807 39.8374737,78.3922807 39.3229474,78.6495439 L36.4912281,80.0654035 L33.6576842,78.6495439 C33.0920702,78.3685614 32.4206316,78.3959298 31.882386,78.7298246 C31.3459649,79.0618947 31.0175439,79.6475789 31.0175439,80.2807018 L31.0175439,100.350877 L18.245614,100.350877 C15.2277895,100.350877 12.7719298,97.8950175 12.7719298,94.877193 Z M34.6666667,100.350877 L34.6666667,83.2328421 L35.6756491,83.7364211 C36.1883509,83.9936842 36.7941053,83.9936842 37.3086316,83.7364211 L40.1403509,82.3205614 L42.9738947,83.7364211 C43.4884211,83.9936842 44.0923509,83.9936842 44.6068772,83.7364211 L45.6140351,83.2328421 L45.6140351,100.350877 L34.6666667,100.350877 Z M89.4035088,94.877193 C89.4035088,97.8950175 86.9476491,100.350877 83.9298246,100.350877 L71.1578947,100.350877 L71.1578947,55.1674386 L76.8231579,66.4997895 C77.1333333,67.1183158 77.7646316,67.5087719 78.4561404,67.5087719 L89.4035088,67.5087719 L89.4035088,94.877193 Z M79.5837193,63.8596491 L72.2854737,49.2631579 L87.5789474,49.2631579 L90.1004912,49.2631579 L97.3987368,63.8596491 L79.5837193,63.8596491 Z" id="Shape"></path>
                <circle id="Oval" cx="45.6140351" cy="32.8421053" r="1.8245614"></circle>
                <ellipse id="Oval" cx="56.5614035" cy="32.8421053" rx="1.8245614" ry="1.8245614"></ellipse>
                <path d="M14.5964912,41.9649123 L18.245614,41.9649123 C18.245614,31.9042807 10.0606316,23.7192982 0,23.7192982 L0,27.3684211 C8.04814035,27.3684211 14.5964912,33.9167719 14.5964912,41.9649123 Z" id="Shape"></path>
                <path d="M21.8947368,25.5438596 L25.5438596,25.5438596 C25.5438596,12.4654035 14.9030175,1.8245614 1.8245614,1.8245614 L1.8245614,5.47368421 C12.8905263,5.47368421 21.8947368,14.4778947 21.8947368,25.5438596 Z" id="Shape"></path>
                <path d="M41.9649123,18.245614 L45.6140351,18.245614 C45.6140351,9.19031579 38.2464561,1.8245614 29.1929825,1.8245614 L29.1929825,5.47368421 C36.2357895,5.47368421 41.9649123,11.2046316 41.9649123,18.245614 Z" id="Shape"></path>
                <path d="M83.9298246,41.9649123 L87.5789474,41.9649123 C87.5789474,33.9167719 94.1272982,27.3684211 102.175439,27.3684211 L102.175439,23.7192982 C92.114807,23.7192982 83.9298246,31.9042807 83.9298246,41.9649123 Z" id="Shape"></path>
                <path d="M100.350877,5.47368421 L100.350877,1.8245614 C87.2724211,1.8245614 76.6315789,12.4654035 76.6315789,25.5438596 L80.2807018,25.5438596 C80.2807018,14.4778947 89.2849123,5.47368421 100.350877,5.47368421 Z" id="Shape"></path>
                <path d="M72.9824561,5.47368421 L72.9824561,1.8245614 C63.9289825,1.8245614 56.5614035,9.19031579 56.5614035,18.245614 L60.2105263,18.245614 C60.2105263,11.2046316 65.9396491,5.47368421 72.9824561,5.47368421 Z" id="Shape"></path>
                <rect id="Rectangle-path" x="21.8947368" y="29.1929825" width="3.64912281" height="3.64912281"></rect>
                <rect id="Rectangle-path" x="21.8947368" y="36.4912281" width="3.64912281" height="3.64912281"></rect>
                <rect id="Rectangle-path" x="76.6315789" y="29.1929825" width="3.64912281" height="3.64912281"></rect>
                <rect id="Rectangle-path" x="76.6315789" y="36.4912281" width="3.64912281" height="3.64912281"></rect>
                <rect id="Rectangle-path" x="21.8947368" y="1.8245614" width="3.64912281" height="3.64912281"></rect>
                <rect id="Rectangle-path" x="76.6315789" y="1.8245614" width="3.64912281" height="3.64912281"></rect>
                <rect id="Rectangle-path" x="49.2631579" y="14.5964912" width="3.64912281" height="3.64912281"></rect>
                <rect id="Rectangle-path" x="49.2631579" y="7.29824561" width="3.64912281" height="3.64912281"></rect>
                <rect id="Rectangle-path" x="49.2631579" y="0" width="3.64912281" height="3.64912281"></rect>
                <rect id="Rectangle-path" x="31.0175439" y="14.5964912" width="3.64912281" height="3.64912281"></rect>
                <rect id="Rectangle-path" x="67.5087719" y="14.5964912" width="3.64912281" height="3.64912281"></rect>
            </g>
        </g>
    </g>
</svg>