<?xml version="1.0" encoding="UTF-8"?>
<svg width="312px" height="260px" viewBox="0 0 312 260" version="1.1" xmlns="http://www.w3.org/2000/svg" xmlns:xlink="http://www.w3.org/1999/xlink">
    <!-- Generator: Sketch 41.2 (35397) - http://www.bohemiancoding.com/sketch -->
    <title>phone_top</title>
    <desc>Created with Sketch.</desc>
    <defs></defs>
    <g id="Work" stroke="none" stroke-width="1" fill="none" fill-rule="evenodd">
        <g id="phone_top">
            <g id="iPhone-Front" transform="translate(0.000000, -1.000000)" fill="#F06970">
                <path d="M24.4705882,90.4754717 L26.9176471,87.9622642 L26.9176471,590.603774 L24.4705882,588.090566 L299.764706,588.090566 L297.317647,590.603774 L297.317647,87.9622642 L299.764706,90.4754717 L24.4705882,90.4754717 Z M299.764706,87.9622642 L299.764706,590.603774 L24.4705882,590.603774 L24.4705882,87.9622642 L299.764706,87.9622642 Z M104,56.5471698 C107.378683,56.5471698 110.117647,53.7341664 110.117647,50.2641509 C110.117647,46.7941354 107.378683,43.9811321 104,43.9811321 C100.621317,43.9811321 97.8823529,46.7941354 97.8823529,50.2641509 C97.8823529,53.7341664 100.621317,56.5471698 104,56.5471698 Z M156,37.6981132 C157.689342,37.6981132 159.058824,36.2916115 159.058824,34.5566038 C159.058824,32.821596 157.689342,31.4150943 156,31.4150943 C154.310658,31.4150943 152.941176,32.821596 152.941176,34.5566038 C152.941176,36.2916115 154.310658,37.6981132 156,37.6981132 Z M128.470588,53.4056604 C128.470588,51.6706526 129.88693,50.2641509 131.608516,50.2641509 L180.391484,50.2641509 C182.124514,50.2641509 183.529412,51.674183 183.529412,53.4056604 L183.529412,53.4056604 C183.529412,55.1406681 182.11307,56.5471698 180.391484,56.5471698 L131.608516,56.5471698 C129.875486,56.5471698 128.470588,55.1371377 128.470588,53.4056604 L128.470588,53.4056604 Z M180.470588,625.160377 C180.470588,611.280315 169.514733,600.028302 156,600.028302 C142.485267,600.028302 131.529412,611.280315 131.529412,625.160377 C131.529412,639.040439 142.485267,650.292453 156,650.292453 C169.514733,650.292453 180.470588,639.040439 180.470588,625.160377 Z M137.647059,625.160377 C137.647059,614.750331 145.86395,606.311321 156,606.311321 C166.13605,606.311321 174.352941,614.750331 174.352941,625.160377 C174.352941,635.570424 166.13605,644.009434 156,644.009434 C145.86395,644.009434 137.647059,635.570424 137.647059,625.160377 Z M12.2352941,615.737062 C12.2352941,640.001875 31.4356677,659.716981 55.0932839,659.716981 L263.024363,659.716981 C286.72795,659.716981 305.882353,640.0448 305.882353,615.737062 L305.882353,50.2629377 C305.882353,25.9981254 286.681979,6.28301887 263.024363,6.28301887 L55.0932839,6.28301887 C31.3896973,6.28301887 12.2352941,25.9552001 12.2352941,50.2629377 L12.2352941,615.737062 Z M55.0932839,0 L263.024363,0 C290.072861,0 312,22.5406348 312,50.2629377 L312,615.737062 C312,643.496516 290.12445,666 263.024363,666 L55.0932839,666 C28.0447865,666 6.11764706,643.459365 6.11764706,615.737062 L6.11764706,50.2629377 C6.11764706,22.5034837 27.9931966,0 55.0932839,0 Z M0,91.0439499 C0,89.3419819 1.41888787,87.9622642 3.05882353,87.9622642 L6.11764706,87.9622642 L6.11764706,113.09434 L3.05882353,113.09434 C1.36948194,113.09434 0,111.74313 0,110.012654 L0,91.0439499 L0,91.0439499 L0,91.0439499 Z M0,147.653682 C0,145.917162 1.41888787,144.509434 3.05882353,144.509434 L6.11764706,144.509434 L6.11764706,194.773585 L3.05882353,194.773585 C1.36948194,194.773585 0,193.323484 0,191.629337 L0,147.653682 L0,147.653682 L0,147.653682 Z M0,210.48387 C0,208.74735 1.41888787,207.339623 3.05882353,207.339623 L6.11764706,207.339623 L6.11764706,257.603774 L3.05882353,257.603774 C1.36948194,257.603774 0,256.153673 0,254.459526 L0,210.48387 L0,210.48387 L0,210.48387 Z" id="Combined-Shape"></path>
            </g>
            <path d="M138.001399,112.36 L138.956595,112.36 L138.956595,108.129297 L138.001399,108.129297 L138.001399,112.36 Z M138.477063,107.440938 C138.828977,107.440938 139.068743,107.216641 139.068743,106.911133 C139.068743,106.605625 138.828977,106.381328 138.477063,106.381328 C138.129016,106.381328 137.885384,106.605625 137.885384,106.911133 C137.885384,107.216641 138.129016,107.440938 138.477063,107.440938 Z M141.215693,112.36 L141.215693,108.434805 L141.269834,108.434805 L142.812841,112.143438 L143.524404,112.143438 L145.067412,108.434805 L145.121552,108.434805 L145.121552,112.36 L146.049677,112.36 L146.049677,106.779648 L144.881787,106.779648 L143.203427,110.844063 L143.133818,110.844063 L141.455459,106.779648 L140.287568,106.779648 L140.287568,112.36 L141.215693,112.36 Z M149.144088,108.806055 C149.720299,108.806055 150.099284,109.208242 150.11862,109.834727 L148.127018,109.834727 C148.169557,109.215977 148.571745,108.806055 149.144088,108.806055 Z M150.126354,111.195977 C149.987135,111.509219 149.658424,111.683242 149.18276,111.683242 C148.552409,111.683242 148.146354,111.242383 148.123151,110.538555 L148.123151,110.488281 L151.077682,110.488281 L151.077682,110.178906 C151.077682,108.844727 150.354518,108.044219 149.147955,108.044219 C147.922057,108.044219 147.160221,108.898867 147.160221,110.260117 C147.160221,111.621367 147.910455,112.445078 149.15569,112.445078 C150.153424,112.445078 150.853385,111.965547 151.035143,111.195977 L150.126354,111.195977 Z M151.987132,109.339727 C151.987132,109.977812 152.369984,110.35293 153.182093,110.538555 L153.932327,110.712578 C154.334515,110.801523 154.516273,110.952344 154.516273,111.192109 C154.516273,111.505352 154.179827,111.718047 153.696429,111.718047 C153.216898,111.718047 152.919124,111.532422 152.826312,111.21918 L151.878851,111.21918 C151.952327,111.98875 152.617484,112.445078 153.673226,112.445078 C154.728968,112.445078 155.475335,111.903672 155.475335,111.091562 C155.475335,110.468945 155.100218,110.120898 154.291976,109.939141 L153.545609,109.768984 C153.120218,109.672305 152.919124,109.525352 152.919124,109.285586 C152.919124,108.980078 153.247835,108.77125 153.684827,108.77125 C154.133421,108.77125 154.415726,108.960742 154.485335,109.258516 L155.38639,109.258516 C155.31678,108.488945 154.686429,108.044219 153.68096,108.044219 C152.683226,108.044219 151.987132,108.574023 151.987132,109.339727 Z M156.315176,109.339727 C156.315176,109.977812 156.698027,110.35293 157.510137,110.538555 L158.260371,110.712578 C158.662559,110.801523 158.844316,110.952344 158.844316,111.192109 C158.844316,111.505352 158.507871,111.718047 158.024473,111.718047 C157.544941,111.718047 157.247168,111.532422 157.154355,111.21918 L156.206895,111.21918 C156.280371,111.98875 156.945527,112.445078 158.00127,112.445078 C159.057012,112.445078 159.803379,111.903672 159.803379,111.091562 C159.803379,110.468945 159.428262,110.120898 158.62002,109.939141 L157.873652,109.768984 C157.448262,109.672305 157.247168,109.525352 157.247168,109.285586 C157.247168,108.980078 157.575879,108.77125 158.012871,108.77125 C158.461465,108.77125 158.74377,108.960742 158.813379,109.258516 L159.714434,109.258516 C159.644824,108.488945 159.014473,108.044219 158.009004,108.044219 C157.01127,108.044219 156.315176,108.574023 156.315176,109.339727 Z M162.263571,111.675508 C161.83818,111.675508 161.532673,111.462812 161.532673,111.107031 C161.532673,110.762852 161.78404,110.569492 162.321579,110.534688 L163.276774,110.472813 L163.276774,110.809258 C163.276774,111.300391 162.843649,111.675508 162.263571,111.675508 Z M161.981266,112.429609 C162.534274,112.429609 162.998337,112.189844 163.234235,111.779922 L163.299977,111.779922 L163.299977,112.36 L164.224235,112.36 L164.224235,109.471211 C164.224235,108.574023 163.61322,108.044219 162.52654,108.044219 C161.521071,108.044219 160.82111,108.519883 160.743766,109.26625 L161.648688,109.26625 C161.737634,108.980078 162.039274,108.825391 162.480134,108.825391 C162.998337,108.825391 163.276774,109.057422 163.276774,109.471211 L163.276774,109.826992 L162.186227,109.892734 C161.157555,109.954609 160.581345,110.395469 160.581345,111.161172 C160.581345,111.934609 161.16529,112.429609 161.981266,112.429609 Z M168.308646,110.198242 C168.308646,111.006484 167.906459,111.516953 167.237435,111.516953 C166.568412,111.516953 166.189427,111.006484 166.189427,110.198242 C166.189427,109.39 166.568412,108.875664 167.237435,108.875664 C167.902591,108.875664 168.308646,109.39 168.308646,110.198242 Z M167.237435,113.96875 C168.471068,113.96875 169.25224,113.353867 169.25224,112.375469 L169.25224,108.129297 L168.327982,108.129297 L168.327982,108.806055 L168.26224,108.806055 C168.030209,108.345859 167.527474,108.059687 166.951263,108.059687 C165.872318,108.059687 165.203295,108.902734 165.203295,110.198242 C165.203295,111.470547 165.868451,112.298125 166.935795,112.298125 C167.523607,112.298125 167.983802,112.050625 168.227435,111.598164 L168.293177,111.598164 L168.293177,112.398672 C168.293177,112.928477 167.910326,113.237852 167.252904,113.237852 C166.726966,113.237852 166.386654,113.052227 166.324779,112.762187 L165.361849,112.762187 C165.439193,113.489219 166.150755,113.96875 167.237435,113.96875 Z M172.246104,108.806055 C172.822315,108.806055 173.201299,109.208242 173.220635,109.834727 L171.229034,109.834727 C171.271573,109.215977 171.67376,108.806055 172.246104,108.806055 Z M173.22837,111.195977 C173.089151,111.509219 172.76044,111.683242 172.284776,111.683242 C171.654424,111.683242 171.24837,111.242383 171.225166,110.538555 L171.225166,110.488281 L174.179698,110.488281 L174.179698,110.178906 C174.179698,108.844727 173.456534,108.044219 172.249971,108.044219 C171.024073,108.044219 170.262237,108.898867 170.262237,110.260117 C170.262237,111.621367 171.012471,112.445078 172.257705,112.445078 C173.25544,112.445078 173.955401,111.965547 174.137159,111.195977 L173.22837,111.195977 Z" id="iMessage" fill="#8E8E93"></path>
            <path d="M132.143222,121.732093 L132.143222,117.014124 L133.86412,117.014124 L133.86412,116.151741 L129.428456,116.151741 L129.428456,117.014124 L131.145488,117.014124 L131.145488,121.732093 L132.143222,121.732093 Z M136.069078,121.012796 C135.400055,121.012796 135.017203,120.502327 135.017203,119.616741 C135.017203,118.735023 135.400055,118.220687 136.069078,118.220687 C136.734234,118.220687 137.117086,118.735023 137.117086,119.616741 C137.117086,120.502327 136.738102,121.012796 136.069078,121.012796 Z M136.069078,121.817171 C137.333648,121.817171 138.103219,120.989593 138.103219,119.616741 C138.103219,118.247757 137.329781,117.416312 136.069078,117.416312 C134.812242,117.416312 134.034938,118.251624 134.034938,119.616741 C134.034938,120.989593 134.800641,121.817171 136.069078,121.817171 Z M140.644622,121.801702 C141.232434,121.801702 141.7197,121.527132 141.959466,121.06307 L142.025208,121.06307 L142.025208,121.732093 L142.953333,121.732093 L142.953333,115.86557 L141.99427,115.86557 L141.99427,118.174281 L141.928528,118.174281 C141.704231,117.710218 141.2247,117.431781 140.644622,117.431781 C139.577278,117.431781 138.904388,118.274827 138.904388,119.612874 C138.904388,120.958656 139.573411,121.801702 140.644622,121.801702 Z M140.942395,118.247757 C141.599817,118.247757 142.005872,118.773695 142.005872,119.616741 C142.005872,120.467523 141.603684,120.985726 140.942395,120.985726 C140.284973,120.985726 139.886653,120.47139 139.886653,119.616741 C139.886653,118.76596 140.288841,118.247757 140.942395,118.247757 Z M145.653291,121.047601 C145.2279,121.047601 144.922392,120.834906 144.922392,120.479124 C144.922392,120.134945 145.173759,119.941585 145.711298,119.906781 L146.666494,119.844906 L146.666494,120.181351 C146.666494,120.672484 146.233369,121.047601 145.653291,121.047601 Z M145.370986,121.801702 C145.923994,121.801702 146.388056,121.561937 146.623955,121.152015 L146.689697,121.152015 L146.689697,121.732093 L147.613955,121.732093 L147.613955,118.843304 C147.613955,117.946116 147.002939,117.416312 145.916259,117.416312 C144.910791,117.416312 144.21083,117.891976 144.133486,118.638343 L145.038408,118.638343 C145.127353,118.352171 145.428994,118.197484 145.869853,118.197484 C146.388056,118.197484 146.666494,118.429515 146.666494,118.843304 L146.666494,119.199085 L145.575947,119.264827 C144.547275,119.326702 143.971064,119.767562 143.971064,120.533265 C143.971064,121.306702 144.555009,121.801702 145.370986,121.801702 Z M149.142155,123.267366 C150.089616,123.267366 150.542077,122.91932 150.901725,121.867445 L152.429264,117.50139 L151.416061,117.50139 L150.429928,120.803968 L150.364186,120.803968 L149.374186,117.50139 L148.322311,117.50139 L149.834381,121.751429 L149.784108,121.937054 C149.660358,122.32764 149.432194,122.482327 149.026139,122.482327 C148.960397,122.482327 148.817311,122.47846 148.76317,122.466859 L148.76317,123.251898 C148.825045,123.263499 149.084147,123.267366 149.142155,123.267366 Z M156.819844,121.732093 L157.515938,121.732093 L157.515938,116.151741 L156.823711,116.151741 L155.338711,117.219085 L155.338711,117.953851 L156.757969,116.925179 L156.819844,116.925179 L156.819844,121.732093 Z M159.775036,121.094007 C160.053473,121.094007 160.27777,120.865843 160.27777,120.591273 C160.27777,120.312835 160.053473,120.088538 159.775036,120.088538 C159.500466,120.088538 159.272302,120.312835 159.272302,120.591273 C159.272302,120.865843 159.500466,121.094007 159.775036,121.094007 Z M159.775036,118.12014 C160.053473,118.12014 160.27777,117.891976 160.27777,117.617406 C160.27777,117.338968 160.053473,117.114671 159.775036,117.114671 C159.500466,117.114671 159.272302,117.338968 159.272302,117.617406 C159.272302,117.891976 159.500466,118.12014 159.775036,118.12014 Z M161.620345,117.72182 L161.620345,117.725687 L162.293236,117.725687 L162.293236,117.72182 C162.293236,117.064398 162.734095,116.627406 163.38765,116.627406 C164.002533,116.627406 164.478197,117.056663 164.478197,117.613538 C164.478197,118.062132 164.304173,118.363773 163.584877,119.144945 L161.65515,121.252562 L161.65515,121.732093 L165.267103,121.732093 L165.267103,121.105609 L162.652884,121.105609 L162.652884,121.043734 L163.994798,119.601273 C164.911322,118.619007 165.174291,118.166546 165.174291,117.586468 C165.174291,116.700882 164.408587,116.020257 163.406986,116.020257 C162.37058,116.020257 161.620345,116.73182 161.620345,117.72182 Z M168.357647,121.863577 C169.610616,121.863577 170.329912,120.803968 170.329912,118.951585 C170.329912,117.10307 169.599014,116.020257 168.357647,116.020257 C167.108545,116.020257 166.377647,117.099202 166.377647,118.939984 C166.377647,120.796234 167.100811,121.863577 168.357647,121.863577 Z M168.357647,121.256429 C167.533936,121.256429 167.077608,120.432718 167.077608,118.939984 C167.077608,117.466585 167.54167,116.631273 168.357647,116.631273 C169.173623,116.631273 169.629952,117.458851 169.629952,118.939984 C169.629952,120.436585 169.181358,121.256429 168.357647,121.256429 Z M171.602878,116.151741 L171.602878,121.732093 L172.298972,121.732093 L172.298972,119.740491 L173.702761,119.740491 C174.750769,119.740491 175.497136,119.001859 175.497136,117.957718 C175.497136,116.894241 174.766237,116.151741 173.710495,116.151741 L171.602878,116.151741 Z M172.298972,116.770491 L173.528737,116.770491 C174.33698,116.770491 174.781706,117.192015 174.781706,117.957718 C174.781706,118.696351 174.321511,119.121741 173.528737,119.121741 L172.298972,119.121741 L172.298972,116.770491 Z M177.326977,121.732093 L177.326977,117.470452 L177.373383,117.470452 L179.132953,121.693421 L179.720766,121.693421 L181.480336,117.470452 L181.526742,117.470452 L181.526742,121.732093 L182.17643,121.732093 L182.17643,116.151741 L181.368187,116.151741 L179.457797,120.769163 L179.395922,120.769163 L177.485531,116.151741 L176.677289,116.151741 L176.677289,121.732093 L177.326977,121.732093 Z" id="Today-1:20PM" fill="#8E8E93"></path>
        </g>
    </g>
</svg>