<?xml version="1.0" encoding="UTF-8"?>
<svg width="312px" height="80px" viewBox="0 0 312 80" version="1.1" xmlns="http://www.w3.org/2000/svg" xmlns:xlink="http://www.w3.org/1999/xlink">
    <!-- Generator: Sketch 41.2 (35397) - http://www.bohemiancoding.com/sketch -->
    <title>phone_bottom</title>
    <desc>Created with Sketch.</desc>
    <defs></defs>
    <g id="Work" stroke="none" stroke-width="1" fill="none" fill-rule="evenodd">
        <g id="phone_bottom" fill="#F06970">
            <g id="iPhone-Front" transform="translate(0.000000, -587.000000)">
                <path d="M24.4705882,90.4754717 L26.9176471,87.9622642 L26.9176471,590.603774 L24.4705882,588.090566 L299.764706,588.090566 L297.317647,590.603774 L297.317647,87.9622642 L299.764706,90.4754717 L24.4705882,90.4754717 Z M299.764706,87.9622642 L299.764706,590.603774 L24.4705882,590.603774 L24.4705882,87.9622642 L299.764706,87.9622642 Z M104,56.5471698 C107.378683,56.5471698 110.117647,53.7341664 110.117647,50.2641509 C110.117647,46.7941354 107.378683,43.9811321 104,43.9811321 C100.621317,43.9811321 97.8823529,46.7941354 97.8823529,50.2641509 C97.8823529,53.7341664 100.621317,56.5471698 104,56.5471698 Z M156,37.6981132 C157.689342,37.6981132 159.058824,36.2916115 159.058824,34.5566038 C159.058824,32.821596 157.689342,31.4150943 156,31.4150943 C154.310658,31.4150943 152.941176,32.821596 152.941176,34.5566038 C152.941176,36.2916115 154.310658,37.6981132 156,37.6981132 Z M128.470588,53.4056604 C128.470588,51.6706526 129.88693,50.2641509 131.608516,50.2641509 L180.391484,50.2641509 C182.124514,50.2641509 183.529412,51.674183 183.529412,53.4056604 L183.529412,53.4056604 C183.529412,55.1406681 182.11307,56.5471698 180.391484,56.5471698 L131.608516,56.5471698 C129.875486,56.5471698 128.470588,55.1371377 128.470588,53.4056604 L128.470588,53.4056604 Z M183.34117,625.132075 C183.34117,611.252013 172.385315,600 158.870582,600 C145.355849,600 134.399994,611.252013 134.399994,625.132075 C134.399994,639.012137 145.355849,650.264151 158.870582,650.264151 C172.385315,650.264151 183.34117,639.012137 183.34117,625.132075 Z M140.399994,624.849057 C140.399994,614.43901 148.616886,606 158.752935,606 C168.888985,606 177.105876,614.43901 177.105876,624.849057 C177.105876,635.259103 168.888985,643.698113 158.752935,643.698113 C148.616886,643.698113 140.399994,635.259103 140.399994,624.849057 Z M12.2352941,615.737062 C12.2352941,640.001875 31.4356677,659.716981 55.0932839,659.716981 L263.024363,659.716981 C286.72795,659.716981 305.882353,640.0448 305.882353,615.737062 L305.882353,50.2629377 C305.882353,25.9981254 286.681979,6.28301887 263.024363,6.28301887 L55.0932839,6.28301887 C31.3896973,6.28301887 12.2352941,25.9552001 12.2352941,50.2629377 L12.2352941,615.737062 Z M55.0932839,0 L263.024363,0 C290.072861,0 312,22.5406348 312,50.2629377 L312,615.737062 C312,643.496516 290.12445,666 263.024363,666 L55.0932839,666 C28.0447865,666 6.11764706,643.459365 6.11764706,615.737062 L6.11764706,50.2629377 C6.11764706,22.5034837 27.9931966,0 55.0932839,0 Z M0,91.0439499 C0,89.3419819 1.41888787,87.9622642 3.05882353,87.9622642 L6.11764706,87.9622642 L6.11764706,113.09434 L3.05882353,113.09434 C1.36948194,113.09434 0,111.74313 0,110.012654 L0,91.0439499 L0,91.0439499 L0,91.0439499 Z M0,147.653682 C0,145.917162 1.41888787,144.509434 3.05882353,144.509434 L6.11764706,144.509434 L6.11764706,194.773585 L3.05882353,194.773585 C1.36948194,194.773585 0,193.323484 0,191.629337 L0,147.653682 L0,147.653682 L0,147.653682 Z M0,210.48387 C0,208.74735 1.41888787,207.339623 3.05882353,207.339623 L6.11764706,207.339623 L6.11764706,257.603774 L3.05882353,257.603774 C1.36948194,257.603774 0,256.153673 0,254.459526 L0,210.48387 L0,210.48387 L0,210.48387 Z" id="Combined-Shape"></path>
            </g>
        </g>
    </g>
</svg>