<?xml version="1.0" encoding="UTF-8"?>
<svg width="154px" height="176px" viewBox="0 0 154 176" version="1.1" xmlns="http://www.w3.org/2000/svg" xmlns:xlink="http://www.w3.org/1999/xlink">
    <!-- Generator: Sketch 41.2 (35397) - http://www.bohemiancoding.com/sketch -->
    <title>Artboard</title>
    <desc>Created with Sketch.</desc>
    <defs></defs>
    <g id="Page-1" stroke="none" stroke-width="1" fill="none" fill-rule="evenodd">
        <g id="Artboard" fill="#000000">
            <g id="noun_709544_cc">
                <circle id="Oval" cx="22.5" cy="43.3" r="1.7"></circle>
                <circle id="Oval" cx="41.3" cy="43.3" r="1.7"></circle>
                <path d="M32,53.9 C33.3,53.9 34.7,53.2 35.5,52.1 C36,51.5 35.8,50.6 35.2,50.1 C34.6,49.6 33.7,49.8 33.2,50.4 C32.9,50.7 32.4,51 32,51 C31.6,51 31,50.7 30.8,50.4 C30.5,50 30.1,49.7 29.6,49.7 C28.8,49.7 28.2,50.3 28.2,51.1 C28.2,51.4 28.3,51.7 28.4,51.9 C29.1,53.1 30.6,53.9 32,53.9 Z" id="Shape"></path>
                <path d="M39,57.6 C37.1,59.5 34.6,60.5 31.9,60.5 C29.2,60.5 26.7,59.5 24.8,57.6 C24.2,57 23.3,57 22.8,57.6 C22.2,58.2 22.2,59.1 22.8,59.6 C25.2,62 28.5,63.4 31.9,63.4 C35.3,63.4 38.6,62.1 41,59.6 C41.6,59 41.6,58.1 41,57.6 C40.5,57 39.6,57 39,57.6 Z" id="Shape"></path>
                <path d="M53.8,9.1 C47.7,3.3 39.7,0.2 31.2,0.4 C13.8,0.8 0,15.4 0.4,32.8 C0.6,39.7 3,46.3 7.2,51.6 C7.4,51.8 7.6,52.1 7.8,52.3 C9.2,53.9 10.7,55.4 12.3,56.7 C12.8,58.3 13.5,59.8 14.5,61.1 L20.1,68.3 C20.8,69.2 24.6,73.5 28.3,73.5 L35.4,73.5 C39.1,73.5 42.9,69.2 43.7,68.3 L49.2,61.2 C50.2,59.9 50.9,58.5 51.4,56.9 L51.4,56.9 C59.2,50.8 63.7,41.2 63.5,31.2 C63.4,22.8 59.9,15 53.8,9.1 Z M31.3,4.3 C38.7,4.1 45.8,6.8 51.1,11.9 C56.5,17 59.5,23.9 59.7,31.3 C59.8,35.5 59,39.5 57.4,43.1 C56.7,40.7 54.6,38.9 52,38.8 L52,28.6 C52,26.5 50.9,24.6 49.2,23.5 C47.4,22.4 45.2,22.3 43.3,23.2 C36.4,26.5 27.4,26.5 20.5,23.2 C18.6,22.3 16.4,22.4 14.6,23.5 C12.8,24.6 11.8,26.5 11.8,28.6 L11.8,38.8 C9.3,38.9 7.2,40.6 6.4,42.9 C5,39.7 4.3,36.3 4.2,32.7 C3.8,17.4 16,4.7 31.3,4.3 Z M42.9,35.4 C39.1,35.4 36,38.1 35.3,41.7 C33.2,40.7 30.8,40.7 28.7,41.7 C28,38.1 24.8,35.4 21.1,35.4 C19,35.4 17.1,36.2 15.7,37.6 L15.7,28.6 C15.7,27.8 16.1,27.1 16.7,26.7 C17.1,26.5 17.5,26.3 17.9,26.3 C18.2,26.3 18.6,26.4 18.9,26.5 C26.8,30.3 37.1,30.3 45,26.5 C45.7,26.1 46.5,26.2 47.2,26.6 C47.9,27 48.2,27.7 48.2,28.5 L48.2,37.5 C46.8,36.2 44.9,35.4 42.9,35.4 Z M47.8,43.2 C47.8,45.9 45.6,48.1 42.9,48.1 C40.2,48.1 38,45.9 38,43.2 C38,40.5 40.2,38.3 42.9,38.3 C45.6,38.3 47.8,40.5 47.8,43.2 Z M25.9,43.2 C25.9,45.9 23.7,48.1 21,48.1 C18.3,48.1 16.1,45.9 16.1,43.2 C16.1,40.5 18.3,38.3 21,38.3 C23.7,38.3 25.9,40.5 25.9,43.2 Z M10,48.3 L10,44.7 C10,43.6 10.8,42.8 11.8,42.7 L11.8,50.4 C11.3,50.3 10.9,50.1 10.6,49.8 C10.5,49.7 10.4,49.6 10.3,49.4 C10.1,49.1 10,48.7 10,48.3 Z M52,42.7 C53,42.8 53.8,43.7 53.8,44.7 L53.8,48.3 C53.8,49.4 53,50.2 52,50.3 L52,42.7 Z M46.3,58.8 L40.8,65.9 C39.5,67.4 37,69.7 35.5,69.7 L28.4,69.7 C27,69.7 24.4,67.4 23.2,66 L17.6,58.9 C16.3,57.3 15.6,55.2 15.6,53.2 L15.6,48.9 C17,50.2 18.9,51 21,51 C24.6,51 27.6,48.6 28.5,45.3 C28.6,45.2 28.7,45.2 28.8,45.1 C30.5,43.4 33.3,43.4 35,45.1 C35.1,45.2 35.2,45.3 35.3,45.3 C36.2,48.6 39.2,51 42.8,51 C44.9,51 46.8,50.2 48.2,48.8 L48.2,53.1 C48.2,55.2 47.5,57.2 46.3,58.8 Z" id="Shape"></path>
            </g>
            <g id="noun_709558_cc" transform="translate(0.000000, 100.000000)">
                <path d="M63.4,69 C60.9,67.4 59.9,65.4 60.3,63 C60.7,60.7 61.9,58.5 63.6,56.7 C67.4,52.8 69.3,48.4 69.1,43.7 C68.9,37.7 65.5,32.3 62.1,29.1 C62.1,21.5 59.1,14.1 53.8,8.7 C48.7,3.5 41.9,0.6 34.8,0.6 C27.7,0.6 20.9,3.5 15.8,8.7 C10.6,14 7.6,21.4 7.5,29.1 C4.2,32.4 0.7,37.8 0.5,43.7 C0.4,48.4 2.2,52.8 6,56.7 C7.8,58.5 8.9,60.7 9.3,63 C9.7,65.4 8.7,67.4 6.2,69 C5.7,69.3 5.4,69.8 5.4,70.4 C5.4,71 5.6,71.5 6.1,71.9 C6.3,72.1 11.8,76.2 18.7,75.1 C23.1,74.4 26.9,71.8 30.2,67.4 C30.5,67.4 30.7,67.5 31,67.5 L38.5,67.5 C38.8,67.5 39,67.5 39.3,67.4 C42.6,71.9 46.4,74.5 50.8,75.2 C51.6,75.3 52.4,75.4 53.1,75.4 C58.8,75.4 63.1,72.2 63.3,72 C63.8,71.7 64,71.1 64,70.5 C64,69.9 63.9,69.4 63.4,69 Z M13.9,45.4 C13,45.4 12.3,44.7 12.3,43.8 L12.3,40.8 C12.3,39.9 13,39.2 13.9,39.2 L13.9,39.2 L13.9,45.4 L13.9,45.4 Z M47.6,27.5 C49.5,27.3 51.1,27.1 51.7,27.6 C52,27.9 52.6,28.9 52.6,32 L52.6,34.5 C51.9,34.5 51.2,34.7 50.5,35 C49.8,32.7 47.7,30.9 45.1,30.9 L43.3,30.9 C40.8,30.9 38.7,32.5 38,34.7 C37.1,34.2 36,34 34.9,34 C33.8,34 32.8,34.2 31.8,34.7 C31.1,32.5 29,30.9 26.5,30.9 L24.7,30.9 C22.1,30.9 20,32.6 19.3,35 C18.6,34.7 17.9,34.5 17.2,34.5 L17.2,32 C17.2,28.3 17.6,25.3 18.5,22.8 C19.1,21 20.7,19.7 22.5,19.3 C22.9,19.2 23.3,19.2 23.7,19.2 C25,19.2 26.3,19.7 27.2,20.7 C35.6,28.9 42.8,28.1 47.6,27.5 Z M56.1,39.2 C57,39.2 57.7,39.9 57.7,40.8 L57.7,43.8 C57.7,44.7 57,45.4 56.1,45.4 L56.1,39.2 Z M48.1,36.6 C48.1,38.2 46.8,39.6 45.1,39.6 L43.3,39.6 C41.7,39.6 40.3,38.3 40.3,36.6 C40.3,34.9 41.6,33.6 43.3,33.6 L45.1,33.6 C46.7,33.7 48.1,35 48.1,36.6 Z M29.6,36.6 C29.6,38.2 28.3,39.6 26.6,39.6 L24.8,39.6 C23.2,39.6 21.8,38.3 21.8,36.6 C21.8,34.9 23.1,33.6 24.8,33.6 L26.6,33.6 C28.3,33.7 29.6,35 29.6,36.6 Z M17.4,37.2 C18.1,37.3 18.8,37.6 19.3,38.1 L19.4,38.2 C20.1,40.5 22.2,42.2 24.8,42.2 L26.6,42.2 C28.3,42.2 29.8,41.4 30.9,40.2 L30.9,46.8 C30.9,47.1 31,47.5 31.3,47.7 C32.3,48.7 33.6,49.2 35,49.2 C36.3,49.2 37.6,48.7 38.7,47.7 C39.2,47.2 39.2,46.4 38.7,45.8 C38.2,45.3 37.4,45.3 36.8,45.8 C35.9,46.7 34.6,46.8 33.6,46.1 L33.6,36.9 C34.1,36.7 34.6,36.6 35.1,36.6 C36.2,36.6 37.2,37 38,37.7 C38.6,40.2 40.8,42 43.4,42 L45.2,42 C47.7,42 49.9,40.3 50.6,38 L50.7,37.9 C51.2,37.4 51.9,37 52.6,37 L52.6,47.3 C52.6,48.6 52.2,49.8 51.4,50.8 L44.6,59.5 C43.5,60.8 40.6,63.6 38.8,63.6 L31.3,63.6 C29.7,63.6 26.9,61.2 25.6,59.5 L18.8,50.7 C18,49.7 17.6,48.4 17.6,47.2 L17.6,37.2 L17.4,37.2 Z M56.4,71.4 C54.2,71.8 52.4,71.4 51.2,70.3 C50,69.2 49.7,67.3 50.1,64.9 C50.2,64.2 49.8,63.5 49.1,63.4 C48.4,63.3 47.7,63.7 47.6,64.4 C47.1,67.2 47.5,69.1 48.2,70.5 C46.3,69.5 44.6,68 42.9,66 C45.2,64.5 47,62.4 47.3,62 L54.1,53.2 C55.1,51.9 55.7,50.4 55.9,48.9 L56,48.9 C58.8,48.9 61.1,46.6 61.1,43.8 L61.1,40.8 C61.1,38 58.8,35.7 56,35.7 L56,32.1 C56,28.5 55.4,26.3 53.9,25 C52.7,23.9 51.3,23.7 49.6,23.8 L49.6,23.8 C42.6,23.8 38.1,20.6 35.7,13.6 C35.4,12.7 34.4,12.2 33.5,12.5 C32.6,12.8 32.1,13.8 32.4,14.7 C33.7,18.5 35.7,21.5 38.2,23.5 C35.6,22.7 32.8,21.1 29.8,18.2 C27.7,16.1 24.8,15.3 21.8,15.9 C18.8,16.6 16.3,18.7 15.2,21.6 C14.2,24.4 13.7,27.9 13.7,31.9 L13.7,35.5 L13.7,35.5 C10.9,35.5 8.6,37.8 8.6,40.6 L8.6,43.6 C8.6,46.4 10.9,48.7 13.7,48.7 L13.8,48.7 C14,50.3 14.7,51.8 15.7,53 L22.6,61.8 C22.9,62.2 24.7,64.3 27,65.7 C25.3,67.8 23.5,69.4 21.5,70.3 C22.2,68.9 22.7,66.9 22.2,64.1 C22.1,63.4 21.4,62.9 20.7,63.1 C20,63.2 19.5,63.9 19.7,64.6 C20.2,67 19.8,68.8 18.6,70 C17.6,71 15.9,71.5 13.9,71.2 C12.6,70.9 11.4,70.4 10.5,70 C13.2,67.3 13.4,64.3 13,62.1 C12.5,59.1 11,56.3 8.7,54 C5.6,50.8 4,47.3 4.2,43.5 C4.4,38.3 7.7,33.4 10.6,30.8 C11,30.5 11.2,30 11.2,29.5 C11.1,22.5 13.7,15.7 18.4,10.9 C22.8,6.4 28.7,3.9 34.9,3.9 C41.1,3.9 46.9,6.4 51.4,10.9 C56.1,15.7 58.8,22.5 58.6,29.5 C58.6,30 58.8,30.5 59.2,30.8 C62.1,33.4 65.4,38.3 65.6,43.5 C65.7,47.2 64.2,50.8 61.1,54 C58.9,56.3 57.4,59.1 56.8,62.1 C56.4,64.3 56.6,67.3 59.3,70 C58.6,70.7 57.6,71.1 56.4,71.4 Z" id="Shape"></path>
                <path d="M36.2,56.9 C36,57 35.5,57.2 35,57.2 C34.5,57.2 34,57 33.8,56.9 C33.3,56.4 32.5,56.4 31.9,56.9 C31.4,57.4 31.4,58.3 31.9,58.8 C32.6,59.5 33.8,59.9 34.9,59.9 C36,59.9 37.1,59.5 37.8,58.9 C38.3,58.4 38.4,57.6 37.9,57 C37.5,56.5 36.7,56.4 36.2,56.9 Z" id="Shape"></path>
                <circle id="Oval" cx="25.7" cy="36.6" r="1.8"></circle>
                <circle id="Oval" cx="44.2" cy="36.6" r="1.8"></circle>
                <path d="M35,55.1 C37.6,55.1 40.1,54.3 41.7,52.8 C42.2,52.3 42.3,51.5 41.8,50.9 C41.3,50.4 40.5,50.3 39.9,50.8 C38.9,51.8 37,52.4 35,52.4 C33,52.4 31.2,51.8 30.1,50.9 C29.6,50.4 28.7,50.4 28.2,51 C27.7,51.5 27.8,52.4 28.3,52.9 C29.9,54.3 32.3,55.1 35,55.1 Z" id="Shape"></path>
                <path d="M21.6,27 C21,27.4 20.8,28.2 21.2,28.8 C21.4,29.2 21.9,29.4 22.3,29.4 C22.5,29.4 22.8,29.3 23,29.2 C24.5,28.3 27.4,28.3 28.9,29.2 C29.5,29.6 30.3,29.4 30.7,28.8 C31.1,28.2 30.9,27.4 30.3,27 C29.1,26.3 27.6,25.9 26,25.9 C24.3,25.9 22.8,26.3 21.6,27 Z" id="Shape"></path>
            </g>
            <g id="noun_709557_cc" transform="translate(95.000000, 0.000000)">
                <path d="M26.2,44.9 C27.2,43.9 28.9,43.9 29.9,44.9 C30.2,45.2 30.5,45.3 30.8,45.3 C31.1,45.3 31.5,45.2 31.7,44.9 C32.2,44.4 32.2,43.5 31.7,43 C29.7,41 26.3,41 24.3,43 C23.8,43.5 23.8,44.4 24.3,44.9 C24.8,45.4 25.7,45.5 26.2,44.9 Z" id="Shape"></path>
                <circle id="Oval" cx="18.8" cy="38.4" r="2.2"></circle>
                <circle id="Oval" cx="37.2" cy="38.4" r="2.2"></circle>
                <path d="M33.5,32.7 C33.7,32.7 34,32.6 34.2,32.5 C35.7,31.6 38.7,31.6 40.2,32.5 C40.8,32.9 41.6,32.7 42,32.1 C42.4,31.5 42.2,30.7 41.6,30.3 C40.4,29.6 38.9,29.2 37.2,29.2 C35.5,29.2 34,29.6 32.8,30.3 C32.2,30.7 32,31.5 32.4,32.1 C32.6,32.5 33,32.7 33.5,32.7 Z" id="Shape"></path>
                <path d="M21.8,32.5 C22.4,32.9 23.2,32.7 23.6,32.1 C24,31.5 23.8,30.7 23.2,30.3 C22,29.6 20.5,29.2 18.8,29.2 C17.1,29.2 15.6,29.6 14.4,30.3 C13.8,30.7 13.6,31.5 14,32.1 C14.3,32.5 14.7,32.7 15.1,32.7 C15.3,32.7 15.6,32.6 15.8,32.5 C17.3,31.6 20.3,31.6 21.8,32.5 Z" id="Shape"></path>
                <path d="M55.5,30 C55.5,27.9 54.4,26 52.8,25 C52.9,24.8 53,24.5 53,24.2 C53,10.8 42.3,0.6 28.1,0.6 C13.9,0.6 3.2,10.7 3.2,24.1 C3.2,24.4 3.3,24.6 3.4,24.9 C1.7,26 0.6,27.9 0.6,30 L0.6,33.9 C0.6,35.5 1.2,36.9 2.2,38 L2.2,38.2 L2.2,73.7 C2.2,74.7 3,75.5 4,75.5 L20.3,75.5 C21.3,75.5 22.1,74.7 22.1,73.7 L22.1,68.2 C22.8,68.5 23.6,68.7 24.3,68.7 L31.9,68.7 C32.6,68.7 33.4,68.5 34.1,68.2 L34.1,73.7 C34.1,74.7 34.9,75.5 35.9,75.5 L52.2,75.5 C53.2,75.5 54,74.7 54,73.7 L54,38.2 L54,38 C55,36.9 55.6,35.5 55.6,33.9 L55.6,30 L55.5,30 Z M49.4,27.5 L49.4,27.5 C50.8,27.5 51.9,28.6 51.9,30 L51.9,33.9 C51.9,35.3 50.8,36.4 49.4,36.4 L49.4,36.4 L49.4,27.5 Z M28.1,4.1 C39,4.1 47.5,11 49.2,20.7 L41.5,20.7 L36.8,16 C36.5,15.7 36,15.5 35.5,15.5 C35,15.5 34.5,15.7 34.2,16.1 L30,20.7 L28.3,20.7 L28.3,15.6 C28.3,14.9 27.7,14.3 27,14.3 C26.3,14.3 25.7,14.9 25.7,15.6 L25.7,20.7 L21.8,20.7 L21.8,11.4 C21.8,10.7 21.2,10.1 20.5,10.1 C19.8,10.1 19.2,10.7 19.2,11.4 L19.2,20.7 L7,20.7 C8.7,11 17.2,4.1 28.1,4.1 Z M4.1,33.9 L4.1,30 C4.1,28.6 5.2,27.5 6.6,27.5 L6.6,27.5 L6.6,36.4 L6.6,36.4 C5.2,36.4 4.1,35.3 4.1,33.9 Z M18.4,71.9 L15.9,71.9 L15.9,66.9 C15.9,66.2 15.3,65.6 14.6,65.6 C13.9,65.6 13.3,66.2 13.3,66.9 L13.3,71.9 L11,71.9 L11,59.5 C11,58.8 10.4,58.2 9.7,58.2 C9,58.2 8.4,58.8 8.4,59.5 L8.4,71.9 L5.9,71.9 L5.9,39.9 C6.2,39.9 6.5,40 6.8,40 L6.8,40 L6.8,48.5 C6.8,50.6 7.5,52.6 8.8,54.3 L15.8,63.2 C16,63.5 17.1,64.7 18.6,66 L18.6,71.9 L18.4,71.9 Z M24.2,65.1 C22.6,65.1 19.8,62.6 18.4,61 L11.4,52 C10.6,51 10.2,49.7 10.2,48.4 L10.2,24.3 L30.8,24.3 C31.3,24.3 31.8,24.1 32.1,23.7 L35.6,19.8 L39.5,23.7 C39.8,24 40.3,24.2 40.8,24.2 L45.9,24.2 L45.9,48.4 C45.9,49.7 45.5,51 44.7,52 L37.8,60.9 C36.3,62.6 33.6,65.1 31.9,65.1 L24.2,65.1 Z M47.8,71.9 L47.8,65.7 C47.8,65 47.2,64.4 46.5,64.4 C45.8,64.4 45.2,65 45.2,65.7 L45.2,71.9 L42.9,71.9 L42.9,66.9 C42.9,66.2 42.3,65.6 41.6,65.6 C40.9,65.6 40.3,66.2 40.3,66.9 L40.3,71.9 L37.8,71.9 L37.8,66 C39.3,64.7 40.5,63.4 40.7,63.1 L47.6,54.2 C48.9,52.6 49.6,50.5 49.6,48.4 L49.6,40 L49.6,40 C49.9,40 50.2,40 50.5,39.9 L50.5,71.9 L47.8,71.9 Z" id="Shape"></path>
                <path d="M34.7,52.3 L31,50.1 C30.7,49.9 30.3,49.9 29.9,50 L29.8,50 C28.8,50.3 27.6,50.4 26.5,50.1 L26,50 C25.7,49.9 25.3,50 25,50.1 L21.3,52.3 C20.9,52.5 20.7,52.9 20.7,53.3 C20.7,53.7 20.8,54.1 21.1,54.4 C21.2,54.5 24.7,57.8 28.2,57.8 C31.6,57.8 34.7,54.7 35,54.3 C35.3,54 35.4,53.6 35.4,53.2 C35.3,52.9 35.1,52.5 34.7,52.3 Z M28.2,55.2 C26.9,55.2 25.4,54.4 24.3,53.7 L25.9,52.8 C27.3,53.2 28.8,53.2 30.2,52.8 L31.8,53.8 C30.8,54.4 29.4,55.2 28.2,55.2 Z" id="Shape"></path>
                <path d="M46.4,58.5 C45.7,58.5 45.1,59.1 45.1,59.8 L45.1,61.8 C45.1,62.5 45.7,63.1 46.4,63.1 C47.1,63.1 47.7,62.5 47.7,61.8 L47.7,59.8 C47.8,59.1 47.2,58.5 46.4,58.5 Z" id="Shape"></path>
            </g>
            <g id="noun_709556_cc" transform="translate(92.000000, 100.000000)">
                <path d="M55.1,25.1 L55.1,25.1 L55.1,23.5 C55.1,10.5 44.8,0.7 31,0.7 C17.2,0.7 6.9,10.5 6.9,23.5 L6.9,25.1 L6.9,25.1 C3.1,25.1 0.1,28.2 0.1,31.9 L0.1,36.3 C0.1,40.1 3.2,43.1 6.9,43.1 L6.9,43.1 L6.9,52.6 C6.9,54.9 7.7,57.3 9.1,59.1 L17,69.2 C17.5,69.8 22.2,75.4 26.7,75.4 L35.3,75.4 C39.8,75.4 44.5,69.9 45.1,69.2 L52.9,59.2 C54.3,57.4 55.1,55.1 55.1,52.7 L55.1,43.2 L55.1,43.2 C58.9,43.2 61.9,40.1 61.9,36.4 L61.9,32 C61.9,28.2 58.8,25.1 55.1,25.1 Z M31,4.7 C41.1,4.7 49,11 50.7,19.8 C49.8,18.4 48.6,17 47.1,15.6 C44.6,13.2 40.9,12.1 37.3,12.6 C33.1,13.3 28.9,13.3 24.8,12.6 L23.9,12.5 C20.9,12 18,12.9 15.7,14.9 C13.8,16.6 12.4,18.2 11.4,19.7 C13.1,10.9 21,4.7 31,4.7 Z M6.9,39.1 C5.3,39.1 4.1,37.8 4.1,36.3 L4.1,31.9 C4.1,30.3 5.4,29.1 6.9,29.1 L6.9,29.1 L6.9,39.1 L6.9,39.1 Z M49.7,56.7 L46.2,61.2 L45.3,58.1 C43,51.4 37.3,50.7 34.5,51.4 C33.7,51.6 33.2,52.4 33.4,53.2 C33.6,54 34.4,54.5 35.2,54.3 C35.7,54.2 40.6,53.3 42.5,59 L43.9,64.1 L41.9,66.6 C41.2,67.4 40.3,68.4 39.3,69.2 L39.3,66.5 C39.3,65.7 38.6,65 37.8,65 C37,65 36.3,65.7 36.3,66.5 L36.3,71.1 C35.9,71.2 35.6,71.3 35.3,71.3 L34.8,71.3 L34.8,66.5 C34.8,65.7 34.1,65 33.3,65 C32.5,65 31.8,65.7 31.8,66.5 L31.8,71.3 L30.3,71.3 L30.3,66.5 C30.3,65.7 29.6,65 28.8,65 C28,65 27.3,65.7 27.3,66.5 L27.3,71.3 L26.8,71.3 C26.5,71.3 26.2,71.2 25.8,71.1 L25.8,66.5 C25.8,65.7 25.1,65 24.3,65 C23.5,65 22.8,65.7 22.8,66.5 L22.8,69.2 C21.8,68.4 20.9,67.4 20.2,66.7 L18.2,64.1 L19.6,59.1 C21.5,53.4 26.3,54.2 26.9,54.3 C27.7,54.5 28.5,54 28.7,53.2 C28.9,52.4 28.4,51.6 27.6,51.4 C24.9,50.8 19.1,51.4 16.8,58.2 L16,61.2 L12.5,56.7 C11.6,55.6 11.1,54.1 11.1,52.7 L11.1,27.5 L11.1,27.3 C11.1,27.3 11.8,22.5 17.8,17.1 C19.3,15.7 21.4,15.1 23.5,15.4 L24.4,15.5 C28.9,16.2 33.4,16.2 37.9,15.5 C40.6,15.1 43.3,15.9 45.2,17.7 C50.2,22.4 51.2,27.4 51.2,27.4 L51.2,27.5 L51.2,52.7 C51.1,54.1 50.6,55.5 49.7,56.7 Z M57.9,36.3 C57.9,37.9 56.6,39.1 55.1,39.1 L55.1,39.1 L55.1,29.1 L55.1,29.1 C56.7,29.1 57.9,30.4 57.9,31.9 L57.9,36.3 Z" id="Shape"></path>
                <circle id="Oval" cx="19.6" cy="36" r="2.1"></circle>
                <circle id="Oval" cx="42.4" cy="36" r="2.1"></circle>
                <path d="M46,28.5 C43.3,27.6 40.6,28 38.3,29.6 C37.6,30.1 37.5,31 38,31.7 C38.3,32.1 38.8,32.3 39.2,32.3 C39.5,32.3 39.8,32.2 40.1,32 C41.6,30.9 43.3,30.6 45.1,31.3 C45.9,31.6 46.7,31.2 47,30.4 C47.2,29.6 46.8,28.8 46,28.5 Z" id="Shape"></path>
                <path d="M24.1,29.7 C21.8,28 19.1,27.6 16.4,28.6 C15.6,28.9 15.2,29.7 15.5,30.5 C15.8,31.3 16.6,31.7 17.4,31.4 C19.2,30.8 20.8,31 22.4,32.1 C22.7,32.3 23,32.4 23.3,32.4 C23.8,32.4 24.2,32.2 24.5,31.8 C24.9,31.1 24.8,30.1 24.1,29.7 Z" id="Shape"></path>
                <path d="M27.1,56.1 C26.4,55.7 25.5,55.9 25,56.6 C24.6,57.3 24.8,58.2 25.5,58.7 C26.9,59.6 28.9,60.1 31,60.1 C33.1,60.1 35,59.6 36.5,58.7 C37.2,58.3 37.4,57.4 37,56.6 C36.6,55.8 35.7,55.7 34.9,56.1 C33.9,56.7 32.5,57 31,57 C29.5,57.1 28,56.7 27.1,56.1 Z" id="Shape"></path>
                <path d="M35,33.7 C34.9,32.9 34.2,32.3 33.4,32.3 C32.6,32.4 32,33.1 32,33.9 L33,46.8 C32.9,47.2 31.8,47.8 31,47.8 C30.2,47.8 29.1,47.1 29,46.8 L30,33.9 C30.1,33.1 29.4,32.4 28.6,32.3 C27.8,32.2 27.1,32.9 27,33.7 L26,46.7 L26,46.8 C26,49.2 29,50.8 31,50.8 C33,50.8 36,49.2 36,46.8 L36,46.7 L35,33.7 Z" id="Shape"></path>
                <path d="M44.7,41.4 L40.6,41.4 C39.8,41.4 39.1,42.1 39.1,42.9 C39.1,43.7 39.8,44.4 40.6,44.4 L44.7,44.4 C45.5,44.4 46.2,43.7 46.2,42.9 C46.2,42.1 45.5,41.4 44.7,41.4 Z" id="Shape"></path>
                <path d="M21.4,41.4 L17.3,41.4 C16.5,41.4 15.8,42.1 15.8,42.9 C15.8,43.7 16.5,44.4 17.3,44.4 L21.4,44.4 C22.2,44.4 22.9,43.7 22.9,42.9 C22.9,42.1 22.3,41.4 21.4,41.4 Z" id="Shape"></path>
            </g>
        </g>
    </g>
</svg>